<?xml version="1.0" encoding="utf-8"?>
<!-- Generator: Adobe Illustrator 25.0.0, SVG Export Plug-In . SVG Version: 6.00 Build 0)  -->
<svg version="1.1" id="Layer_1" xmlns="http://www.w3.org/2000/svg" xmlns:xlink="http://www.w3.org/1999/xlink" x="0px" y="0px"
	 viewBox="0 0 80 80" style="enable-background:new 0 0 80 80;" xml:space="preserve">
<style type="text/css">
	.st0{display:none;}
	.st1{display:inline;}
</style>
<g id="Layer_5" class="st0">
	<path class="st1" d="M6,6v68h68V6H6z M70,70H10V22h60V70z M10,18v-8h60v8H10z"/>
	<path class="st1" d="M28,30h-8v4h8V30z"/>
	<path class="st1" d="M44,30h-8v4h8V30z"/>
	<path class="st1" d="M60,30h-8v4h8V30z"/>
	<path class="st1" d="M28,40h-8v4h8V40z"/>
	<path class="st1" d="M44,40h-8v4h8V40z"/>
	<path class="st1" d="M60,40h-8v4h8V40z"/>
	<path class="st1" d="M28,50h-8v4h8V50z"/>
	<path class="st1" d="M44,50h-8v4h8V50z"/>
	<path class="st1" d="M60,50h-8v4h8V50z"/>
	<path class="st1" d="M28,60h-8v4h8V60z"/>
</g>
<g>
	<path d="M25.2,7.4c-5.5,0-10,4.5-10,10v48c0,5.5,4.5,10,10,10h0h42v-20v-48H25.2z M63.2,71.4h-38c-3.3,0-6-2.7-6-6s2.7-6,6-6h38
		V71.4z M25.2,55.4c-2.3,0-4.3,0.8-6,2v-40c0-3.3,2.7-6,6-6h38v44H25.2z"/>
	<path d="M27.2,15.4v12h32v-12H27.2z M55.2,23.4h-24v-4h24V23.4z"/>
</g>
</svg>
