<?xml version="1.0" encoding="utf-8"?>
<!-- Generator: Adobe Illustrator 25.0.0, SVG Export Plug-In . SVG Version: 6.00 Build 0)  -->
<svg version="1.1" xmlns="http://www.w3.org/2000/svg" xmlns:xlink="http://www.w3.org/1999/xlink" x="0px" y="0px"
	 viewBox="0 0 80 80" style="enable-background:new 0 0 80 80;" xml:space="preserve">
<style type="text/css">
	.st0{display:none;}
	.st1{display:inline;}
</style>
<g id="Layer_5" class="st0">
	<path class="st1" d="M6,6v68h68V6H6z M70,70H10V22h60V70z M10,18v-8h60v8H10z"/>
	<path class="st1" d="M28,30h-8v4h8V30z"/>
	<path class="st1" d="M44,30h-8v4h8V30z"/>
	<path class="st1" d="M60,30h-8v4h8V30z"/>
	<path class="st1" d="M28,40h-8v4h8V40z"/>
	<path class="st1" d="M44,40h-8v4h8V40z"/>
	<path class="st1" d="M60,40h-8v4h8V40z"/>
	<path class="st1" d="M28,50h-8v4h8V50z"/>
	<path class="st1" d="M44,50h-8v4h8V50z"/>
	<path class="st1" d="M60,50h-8v4h8V50z"/>
	<path class="st1" d="M28,60h-8v4h8V60z"/>
</g>
<g id="Layer_2">
	<path d="M63.6,18.6c-4.4-2-9.1-3.5-14.1-4.3c-0.6,1.1-1.3,2.5-1.8,3.6c-5.2-0.8-10.4-0.8-15.6,0c-0.5-1.1-1.2-2.6-1.8-3.6
		c-4.9,0.8-9.7,2.3-14.1,4.3C7.5,31.7,5.1,44.5,6.3,57.1c5.9,4.3,11.6,6.9,17.2,8.6c1.4-1.9,2.6-3.8,3.7-5.9c-2-0.8-4-1.7-5.8-2.8
		c0.5-0.3,1-0.7,1.4-1.1c11.2,5.1,23.3,5.1,34.4,0c0.5,0.4,0.9,0.8,1.4,1.1c-1.9,1.1-3.8,2-5.8,2.8c1.1,2.1,2.3,4.1,3.7,5.9
		c5.6-1.7,11.3-4.3,17.2-8.6C75.2,42.5,71.3,29.8,63.6,18.6z M28.7,49.3c-3.4,0-6.1-3.1-6.1-6.8c0-3.7,2.7-6.8,6.1-6.8
		c3.4,0,6.2,3.1,6.1,6.8C34.8,46.3,32.1,49.3,28.7,49.3z M51.3,49.3c-3.4,0-6.1-3.1-6.1-6.8c0-3.7,2.7-6.8,6.1-6.8
		c3.4,0,6.2,3.1,6.1,6.8C57.4,46.3,54.7,49.3,51.3,49.3z"/>
</g>
</svg>
