<?xml version="1.0" encoding="utf-8"?>
<!-- Generator: Adobe Illustrator 25.0.0, SVG Export Plug-In . SVG Version: 6.00 Build 0)  -->
<svg version="1.1" id="Layer_5" xmlns="http://www.w3.org/2000/svg" xmlns:xlink="http://www.w3.org/1999/xlink" x="0px" y="0px"
	 viewBox="0 0 80 80" style="enable-background:new 0 0 80 80;" xml:space="preserve">
<path d="M73.9,39.2c-3-7.3-7.5-13.3-12.8-17.6L73.4,9.2l-2.8-2.8L57.8,19.2c-5.4-3.5-11.5-5.4-17.8-5.4c-14.4,0-27.4,9.7-33.9,25.4
	L5.8,40l0.3,0.8c3,7.3,7.5,13.3,12.8,17.6L6.6,70.8l2.8,2.8l12.8-12.9c5.4,3.5,11.5,5.4,17.8,5.4c14.4,0,27.4-9.7,33.9-25.4l0.3-0.8
	L73.9,39.2z M54,40c0,7.8-6.3,14.1-14,14.1c-3.1,0-6-1.1-8.4-2.8l19.6-19.7C52.9,33.9,54,36.8,54,40z M26,40c0-7.8,6.3-14.1,14-14.1
	c3.1,0,6,1.1,8.4,2.8L28.8,48.4C27.1,46.1,26,43.2,26,40z M10.1,40c6-13.7,17.4-22.2,29.9-22.2c5.3,0,10.4,1.5,14.9,4.3l-3.7,3.7
	c-3.1-2.5-7-4-11.2-4c-9.9,0-18,8.1-18,18.1c0,4.3,1.5,8.2,4,11.3l-4.2,4.2C17,51.7,12.9,46.5,10.1,40z M40,62.2
	c-5.3,0-10.4-1.5-14.9-4.3l3.7-3.7c3.1,2.5,7,4,11.2,4c9.9,0,18-8.1,18-18.1c0-4.3-1.5-8.2-4-11.3l4.2-4.2
	c4.8,3.8,8.8,9.1,11.6,15.5C63.9,53.7,52.5,62.2,40,62.2z"/>
</svg>
