<?xml version="1.0" encoding="utf-8"?>
<!-- Generator: Adobe Illustrator 25.0.0, SVG Export Plug-In . SVG Version: 6.00 Build 0)  -->
<svg version="1.1" xmlns="http://www.w3.org/2000/svg" xmlns:xlink="http://www.w3.org/1999/xlink" x="0px" y="0px"
	 viewBox="0 0 80 80" style="enable-background:new 0 0 80 80;" xml:space="preserve">
<style type="text/css">
	.st0{display:none;}
	.st1{display:inline;}
</style>
<g id="Layer_5" class="st0">
	<path class="st1" d="M6,6v68h68V6H6z M70,70H10V22h60V70z M10,18v-8h60v8H10z"/>
	<path class="st1" d="M28,30h-8v4h8V30z"/>
	<path class="st1" d="M44,30h-8v4h8V30z"/>
	<path class="st1" d="M60,30h-8v4h8V30z"/>
	<path class="st1" d="M28,40h-8v4h8V40z"/>
	<path class="st1" d="M44,40h-8v4h8V40z"/>
	<path class="st1" d="M60,40h-8v4h8V40z"/>
	<path class="st1" d="M28,50h-8v4h8V50z"/>
	<path class="st1" d="M44,50h-8v4h8V50z"/>
	<path class="st1" d="M60,50h-8v4h8V50z"/>
	<path class="st1" d="M28,60h-8v4h8V60z"/>
</g>
<g id="Layer_2">
	<g>
		<ellipse cx="25.3" cy="40" rx="19.3" ry="19.3"/>
		<ellipse cx="55.8" cy="40" rx="9.6" ry="19.3"/>
		<ellipse cx="70.8" cy="40" rx="3.2" ry="19.3"/>
	</g>
</g>
</svg>
