<?xml version="1.0" encoding="utf-8"?>
<!-- Generator: Adobe Illustrator 25.0.0, SVG Export Plug-In . SVG Version: 6.00 Build 0)  -->
<svg version="1.1" id="Layer_5" xmlns="http://www.w3.org/2000/svg" xmlns:xlink="http://www.w3.org/1999/xlink" x="0px" y="0px"
	 viewBox="0 0 80 80" style="enable-background:new 0 0 80 80;" xml:space="preserve">
<g>
	<polygon points="66,14 66,8 62,8 62,14 56,14 56,18 62,18 62,24 66,24 66,18 72,18 72,14 	"/>
	<path d="M31.9,21.9c2.3,0,4.5,0.8,6.2,2.1c1.4-0.6,2.8-1,4.3-1.4c-2.6-2.9-6.3-4.8-10.5-4.8c-7.7,0-14,6.3-14,14
		c0,4.2,1.8,7.9,4.8,10.5c0.3-1.5,0.8-3,1.4-4.3c-1.3-1.7-2.1-3.8-2.1-6.2C21.9,26.3,26.3,21.9,31.9,21.9z"/>
	<path d="M22,46.9c-4.9-3.2-8.2-8.8-8.2-15.1c0-9.9,8.1-18,18-18c6.3,0,11.9,3.2,15.1,8.2c0.4,0,0.7,0,1.1,0c1.2,0,2.5,0.1,3.7,0.3
		C48.1,14.9,40.6,9.9,31.9,9.9c-12.2,0-22,9.8-22,22c0,8.7,5.1,16.2,12.4,19.8C22.1,50.5,22,49.2,22,48C22,47.6,22,47.3,22,46.9z"/>
	<path d="M48,26c-12.1,0-22,9.9-22,22s9.9,22,22,22s22-9.9,22-22S60.1,26,48,26z M48,66c-9.9,0-18-8.1-18-18c0-9.9,8.1-18,18-18
		c9.9,0,18,8.1,18,18C66,57.9,57.9,66,48,66z"/>
	<path d="M48,34c-7.7,0-14,6.3-14,14s6.3,14,14,14s14-6.3,14-14S55.7,34,48,34z M48,58c-5.5,0-10-4.5-10-10s4.5-10,10-10
		s10,4.5,10,10S53.5,58,48,58z"/>
</g>
</svg>
