<?xml version="1.0" encoding="utf-8"?>
<!-- Generator: Adobe Illustrator 25.0.0, SVG Export Plug-In . SVG Version: 6.00 Build 0)  -->
<svg version="1.1" id="Layer_5" xmlns="http://www.w3.org/2000/svg" xmlns:xlink="http://www.w3.org/1999/xlink" x="0px" y="0px"
	 viewBox="0 0 80 80" style="enable-background:new 0 0 80 80;" xml:space="preserve">
<g>
	<rect x="38" y="8" width="4" height="40"/>
</g>
<g>
	<path d="M40,74c-9.1,0-17.6-3.5-24-10c-6.4-6.4-10-15-10-24s3.5-17.6,10-24l2.8,2.8C13.1,24.5,10,32,10,40c0,8,3.1,15.5,8.8,21.2
		C24.5,66.9,32,70,40,70c8,0,15.5-3.1,21.2-8.8S70,48,70,40c0-8-3.1-15.5-8.8-21.2L64,16c6.4,6.4,10,15,10,24s-3.5,17.6-10,24
		C57.6,70.5,49.1,74,40,74z"/>
</g>
</svg>
