<?xml version="1.0" encoding="utf-8"?>
<!-- Generator: Adobe Illustrator 25.0.0, SVG Export Plug-In . SVG Version: 6.00 Build 0)  -->
<svg version="1.1" id="Layer_5" xmlns="http://www.w3.org/2000/svg" xmlns:xlink="http://www.w3.org/1999/xlink" x="0px" y="0px"
	 viewBox="0 0 80 80" style="enable-background:new 0 0 80 80;" xml:space="preserve">
<g>
	<path d="M40,6C21.3,6,6,21.3,6,40c0,18.7,15.3,34,34,34c18.7,0,34-15.3,34-34C74,21.3,58.7,6,40,6z M40,70c-16.5,0-30-13.5-30-30
		s13.5-30,30-30s30,13.5,30,30S56.5,70,40,70z"/>
	<circle cx="40" cy="57" r="5"/>
	<path d="M40,18c-7.2,0-13,5.8-13,13h4c0-5,4-9,9-9c5,0,9,4,9,9s-4,9-9,9h-2v6h4v-2.2c6.2-1,11-6.4,11-12.8C53,23.8,47.2,18,40,18z"
		/>
</g>
</svg>
