<?xml version="1.0" encoding="utf-8"?>
<!-- Generator: Adobe Illustrator 25.0.0, SVG Export Plug-In . SVG Version: 6.00 Build 0)  -->
<svg version="1.1" id="Layer_5" xmlns="http://www.w3.org/2000/svg" xmlns:xlink="http://www.w3.org/1999/xlink" x="0px" y="0px"
	 viewBox="0 0 80 80" style="enable-background:new 0 0 80 80;" xml:space="preserve">
<path d="M60.9,19.1l-5.7,5.7c4.1,4.1,6.3,9.5,6.3,15.2c0,11.9-9.6,21.5-21.5,21.5c-11.9,0-21.5-9.6-21.5-21.5
	c0-9.5,6.1-17.5,14.6-20.4L28,26.4l6.3,4.9l13.4-17.5L30.3,0.3l-4.9,6.3l6.5,5C19.5,15.2,10.5,26.6,10.5,40
	c0,16.3,13.2,29.5,29.5,29.5c16.3,0,29.5-13.2,29.5-29.5C69.5,32.1,66.4,24.7,60.9,19.1z"/>
</svg>
