<?xml version="1.0" encoding="utf-8"?>
<!-- Generator: Adobe Illustrator 25.0.0, SVG Export Plug-In . SVG Version: 6.00 Build 0)  -->
<svg version="1.1" id="Layer_5" xmlns="http://www.w3.org/2000/svg" xmlns:xlink="http://www.w3.org/1999/xlink" x="0px" y="0px"
	 viewBox="0 0 80 80" style="enable-background:new 0 0 80 80;" xml:space="preserve">
<path d="M60.5,19.5l-2.8,2.8C62.4,27,65,33.3,65,40c0,13.8-11.2,25-25,25S15,53.8,15,40c0-12.3,8.9-22.5,20.6-24.6l-5,6.5l3.2,2.4
	l9-11.7l-11.7-9l-2.4,3.2l6.1,4.6C21.3,14,11,25.8,11,40c0,16,13,29,29,29c16,0,29-13,29-29C69,32.3,66,25,60.5,19.5z"/>
</svg>
