<?xml version="1.0" encoding="utf-8"?>
<!-- Generator: Adobe Illustrator 25.0.0, SVG Export Plug-In . SVG Version: 6.00 Build 0)  -->
<svg version="1.1" id="Layer_5" xmlns="http://www.w3.org/2000/svg" xmlns:xlink="http://www.w3.org/1999/xlink" x="0px" y="0px"
	 viewBox="0 0 80 80" style="enable-background:new 0 0 80 80;" xml:space="preserve">
<g>
	<path d="M45.3,11.5l6-4.6l-2.4-3.2l-11.7,8.9l8.9,11.7l3.2-2.4l-5-6.5C56.1,17.4,65,27.7,65,40c0,13.8-11.2,25-25,25S15,53.8,15,40
		c0-6.7,2.6-13,7.3-17.7l-2.8-2.8C14,25,11,32.2,11,40c0,16,13,29,29,29c16,0,29-13,29-29C69,25.8,58.8,14,45.3,11.5z"/>
	<circle cx="40" cy="40" r="9"/>
</g>
</svg>
