<?xml version="1.0" encoding="utf-8"?>
<!-- Generator: Adobe Illustrator 25.0.0, SVG Export Plug-In . SVG Version: 6.00 Build 0)  -->
<svg version="1.1" id="Layer_1" xmlns="http://www.w3.org/2000/svg" xmlns:xlink="http://www.w3.org/1999/xlink" x="0px" y="0px"
	 viewBox="0 0 80 80" style="enable-background:new 0 0 80 80;" xml:space="preserve">
<style type="text/css">
	.st0{display:none;}
	.st1{display:inline;}
	.st2{fill-rule:evenodd;clip-rule:evenodd;}
</style>
<g id="Layer_5" class="st0">
	<path class="st1" d="M6,6v68h68V6H6z M70,70H10V22h60V70z M10,18v-8h60v8H10z"/>
	<path class="st1" d="M28,30h-8v4h8V30z"/>
	<path class="st1" d="M44,30h-8v4h8V30z"/>
	<path class="st1" d="M60,30h-8v4h8V30z"/>
	<path class="st1" d="M28,40h-8v4h8V40z"/>
	<path class="st1" d="M44,40h-8v4h8V40z"/>
	<path class="st1" d="M60,40h-8v4h8V40z"/>
	<path class="st1" d="M28,50h-8v4h8V50z"/>
	<path class="st1" d="M44,50h-8v4h8V50z"/>
	<path class="st1" d="M60,50h-8v4h8V50z"/>
	<path class="st1" d="M28,60h-8v4h8V60z"/>
</g>
<g id="Layer_2_1_">
	<path class="st2" d="M10.6,36.1C28.8,28.1,41,23,47.1,20.4c17.4-7.3,21-8.6,23.4-8.6c0.5,0,1.6,0.1,2.5,0.7
		c0.6,0.5,0.8,1.2,0.9,1.6c0.1,0.5,0.2,1.6,0.1,2.5c-0.9,9.9-5.1,34-7.1,45c-0.8,4.7-2.6,6.2-4.2,6.5c-3.6,0.4-6.3-2.4-9.9-4.7
		c-5.5-3.6-8.6-5.9-14-9.4c-6.2-4.1-2.2-6.3,1.3-10c0.9-0.9,16.9-15.5,17.3-16.9c0-0.1,0.1-0.8-0.2-1.1c-0.4-0.4-0.9-0.2-1.3-0.1
		c-0.6,0.1-9.4,6-26.4,17.5c-2.5,1.8-4.8,2.6-6.8,2.5c-2.2,0-6.6-1.3-9.8-2.4c-3.9-1.3-7.1-2-6.8-4.1C6.1,38.4,7.7,37.3,10.6,36.1z"
		/>
</g>
</svg>
