<?xml version="1.0" encoding="utf-8"?><svg version="1.1" id="Layer_1" xmlns="http://www.w3.org/2000/svg" xmlns:xlink="http://www.w3.org/1999/xlink" x="0px" y="0px" viewBox="0 0 120 48" enable-background="new 0 0 120 48" xml:space="preserve">
<path fill-rule="evenodd" clip-rule="evenodd" fill="#FFFFFF" d="M39.5,15.3c0,1-0.8,1.8-1.8,1.8c-1,0-1.8-0.8-1.8-1.8
	s0.8-1.8,1.8-1.8C38.7,13.5,39.5,14.3,39.5,15.3z M85,24.9h-7.4c0.5,2.4,3.5,2.2,4.9,0.8l1.8,1.8c-1.2,1.5-2.2,1.9-4.7,1.9
	c-7.2-0.1-7.4-10.9-0.1-10.9C83.1,18.5,85,21.4,85,24.9z M81.6,23h-4.1C77.5,20.6,81.6,20.1,81.6,23z M39.5,18.7v10.8H36V18.7H39.5z
	 M91.4,18.7c1.5,0,2.8,0.6,3.8,1.6l-2.1,2.1c-0.4-0.4-1.1-0.7-1.7-0.7c-1.4,0-2.5,1.1-2.5,2.5c0,1.4,1.1,2.5,2.5,2.5
	c0.7,0,1.3-0.3,1.7-0.7l2.1,2.1c-1,1-2.3,1.6-3.8,1.6c-3,0-5.4-2.4-5.4-5.4S88.4,18.7,91.4,18.7z M106,29.3v-6.8
	c0-5.1-6.4-4.1-9.4-2.6l0.9,2.3c1.4-0.7,5.1-1.8,5.1,0.9c-0.2,0-0.5,0-0.7,0c-2.5,0-6-0.1-6,3.2c-0.1,3.5,4.8,4.3,6.7,1.9v1.2H106z
	 M99.1,26c0,2.3,3.5,0.9,3.5-1.1c-0.2,0-0.3,0-0.5,0C100.8,24.9,99.1,24.8,99.1,26z M72.9,29.5v-6.8c0-4.5-6.1-5.6-7.6-1.7
	c-1.1-3.1-5.6-3.2-7.1-0.5v-1.8h-3.5v10.8h3.5V24c0-3,3.8-3.2,3.8-0.5v6h3.5V24c0-3,3.8-3.2,3.8-0.5v6H72.9z M52.6,29.5v-6.8
	c0-4.5-5.5-5.5-7.5-2.2v-1.7h-3.5v10.8h3.5v-5.8c0-2.6,4-3.1,4-0.1v5.9H52.6z M29.3,29.5c3,0,5.4-2.4,5.4-5.4c0-3-2.4-5.4-5.4-5.4
	c-3,0-5.4,2.4-5.4,5.4C23.9,27.1,26.3,29.5,29.3,29.5z M29.3,26.6c1.4,0,2.5-1.1,2.5-2.5c0-1.4-1.1-2.5-2.5-2.5
	c-1.4,0-2.5,1.1-2.5,2.5C26.8,25.5,27.9,26.6,29.3,26.6z M19.4,18.7c1.5,0,2.8,0.6,3.8,1.6l-2.1,2.1c-0.4-0.4-1.1-0.7-1.7-0.7
	c-1.4,0-2.5,1.1-2.5,2.5c0,1.4,1.1,2.5,2.5,2.5c0.7,0,1.3-0.3,1.7-0.7l2.1,2.1c-1,1-2.3,1.6-3.8,1.6c-3,0-5.4-2.4-5.4-5.4
	S16.4,18.7,19.4,18.7z M133.307 59.2323C135.237 56.3403 139.517 55.887 142.002 58.3749L139.605 60.7754C138.611 59.7802 136.899 59.9615 136.127 61.1183C135.624 61.8714 135.624 62.88 136.127 63.6331C136.907 64.8022 138.616 64.9662 139.605 63.976L142.002 66.3765C139.53 68.8519 135.258 68.4421 133.307 65.5191C132.051 63.6365 132.051 61.1149 133.307 59.2323ZM142.805 62.3781C142.805 69.6286 154.049 69.6286 154.049 62.3781C154.049 55.1277 142.805 55.1277 142.805 62.3781ZM148.427 60.1294C151.327 60.1294 151.327 64.6269 148.427 64.6269C145.527 64.6269 145.527 60.1294 148.427 60.1294ZM155.555 53.845C155.555 56.305 159.37 56.305 159.37 53.845C159.37 51.385 155.555 51.385 155.555 53.845ZM159.269 56.9571V67.7992H155.655V56.9571H159.269ZM165.293 58.7641C167.451 55.3006 172.822 56.5109 172.822 60.9727V67.7992H169.208V61.7758C169.208 58.8013 165.293 59.4991 165.293 62.077V67.7992H161.679V56.9571H165.293V58.7641ZM193.304 67.7992V60.9727C193.304 56.5109 187.481 55.1501 185.875 59.1657C184.671 55.9532 180.253 56.154 178.848 58.7641V56.9571H175.231V67.7992H178.848V62.3782C178.848 59.4036 182.462 59.0987 182.462 61.7758L182.469 67.7992H186.076V62.3782C186.076 59.4036 189.69 59.0987 189.69 61.7758V67.7992H193.304ZM205.75 63.269C205.75 59.8858 203.799 56.7743 200.128 56.7564C197.067 56.7414 194.506 59.153 194.506 62.3655C194.506 65.578 197.14 67.9873 200.333 67.9873C202.07 67.9873 203.501 67.3741 204.728 66.1475L202.888 63.8987C202.275 64.512 201.559 65.1253 200.333 65.1253C199.106 65.1253 198.224 64.4956 198.02 63.269H205.75ZM198.084 61.3433C198.084 60.2143 198.999 59.299 200.128 59.299C201.257 59.299 202.173 60.2143 202.173 61.3433H198.084ZM207.897 59.2323C209.827 56.3403 214.107 55.887 216.592 58.3749L214.195 60.7754C213.201 59.7802 211.489 59.9615 210.716 61.1183C210.214 61.8714 210.214 62.88 210.716 63.6331C211.497 64.8022 213.206 64.9662 214.195 63.976L216.592 66.3765C214.12 68.8519 209.848 68.4421 207.897 65.5191C206.641 63.6365 206.641 61.1149 207.897 59.2323Z M227.635 60.9788C227.635 55.9592 220.407 56.0596 217.998 57.967L219.202 60.3764C220.006 59.5733 224.021 58.0358 224.021 61.2799C221.545 61.2799 217.395 61.1022 217.395 64.5928C217.395 68.1145 222.143 68.8482 224.027 66.4686V67.8053H227.635V60.9788ZM224.021 63.1874C224.021 65.1705 221.009 66.6007 220.608 64.5929C220.307 63.0878 223.161 63.1874 224.021 63.1874Z" fill="white"/>
</svg>
